# xmcd CD database file
#
# Track frame offsets:
#	150
#	19018
#	37400
#	59189
#	78739
#	89888
#	104434
#	120308
#	136243
#	150993
#
# Disc length: 2236 seconds
#
# Revision: 0
# Processed by: cddbd v1.5.2PL0 Copyright (c) Steve Scherf et al.
# Submitted via: CDex 1.51
#
DISCID=8a08ba0a
DTITLE=Bandari - Piano Paradise
DYEAR=1999
DGENRE=New Age
TTITLE0=I Want To Know What Love Is
TTITLE1=Imagine
TTITLE2=I Swear
TTITLE3=Neptune
TTITLE4=Spring Water
TTITLE5=Morning Sun
TTITLE6=El Condor Pasa
TTITLE7=Chariots Of Fire
TTITLE8=The First Snowflakes
TTITLE9=The Sound Of Silence
EXTD=YEAR: 1999
EXTT0=
EXTT1=
EXTT2=
EXTT3=
EXTT4=
EXTT5=
EXTT6=
EXTT7=
EXTT8=
EXTT9=
PLAYORDER=
